<svg width="32" height="32" viewBox="0 0 32 32" fill="none" xmlns="http://www.w3.org/2000/svg">
<path d="M17.3931 20.6139C17.426 20.6139 17.4559 20.6318 17.4722 20.6598L22.3785 29.1559C22.8728 30.0121 21.8443 30.9352 21.0465 30.3512L16.3843 26.9977C16.063 26.7624 15.6256 26.7624 15.3043 26.9977L10.6334 30.3512C9.83555 30.9351 8.808 30.012 9.30231 29.1559L14.2076 20.6598C14.2242 20.6317 14.2542 20.614 14.2867 20.6139H17.3931ZM11.0465 16.9498C11.0792 16.9502 11.1093 16.9676 11.1256 16.9957L12.6793 19.6862C12.6955 19.7145 12.6952 19.749 12.6793 19.777L7.77399 28.2741C7.27972 29.1302 5.96704 28.7013 6.0738 27.7184L6.64606 22.0036C6.68904 21.6077 6.47039 21.2287 6.10603 21.068L0.866768 18.6998C-0.0379055 18.3009 0.247288 16.9498 1.23591 16.9498H11.0465ZM30.4449 16.9498C31.4335 16.9498 31.7185 18.3008 30.814 18.6998L25.5787 21.0612C25.2143 21.2218 24.9956 21.6008 25.0386 21.9967L25.607 27.7184C25.7137 28.7012 24.4011 29.1301 23.9068 28.2741L19.0015 19.777C18.9857 19.7486 18.9855 19.7142 19.0015 19.6862L20.5552 16.9957C20.5717 16.9672 20.6018 16.9498 20.6343 16.9498H30.4449ZM6.07282 4.41567C5.96642 3.43316 7.27863 3.00445 7.77302 3.86L12.6793 12.3571C12.6952 12.3855 12.6945 12.4208 12.6783 12.4489L11.1256 15.1383C11.1091 15.1668 11.0789 15.1841 11.0465 15.1842L1.23493 15.1852C0.246536 15.185 -0.0378209 13.8331 0.866768 13.4342L6.10212 11.0729C6.46609 10.9122 6.68495 10.5339 6.64216 10.1383L6.07282 4.41567ZM23.9068 3.86C24.4012 3.00427 25.7135 3.43307 25.607 4.41567L25.0338 10.1305C24.9907 10.5264 25.2095 10.9053 25.5738 11.0661L30.814 13.4342C31.7183 13.8333 31.4333 15.1851 30.4449 15.1852L20.6334 15.1842C20.6008 15.1837 20.5705 15.1664 20.5543 15.1383L19.0015 12.4489C18.9851 12.4204 18.9853 12.3852 19.0015 12.3571L23.9068 3.86ZM9.30231 2.97817C8.80802 2.12208 9.83556 1.19916 10.6334 1.78285L15.2955 5.13637C15.6168 5.3716 16.0542 5.37152 16.3756 5.13637L21.0465 1.78285C21.8443 1.19886 22.8728 2.12201 22.3785 2.97817L17.4722 11.4743C17.4556 11.5024 17.4256 11.5202 17.3931 11.5202H14.2867C14.2538 11.5201 14.2238 11.5024 14.2076 11.4743L9.30231 2.97817Z" fill="#8741FF"/>
</svg>
